<svg xmlns="http://www.w3.org/2000/svg" width="43.101" height="43.193" viewBox="0 0 43.101 43.193">
  <g id="_001lighticons-18" data-name="001lighticons-18" transform="translate(0.5 0.5)">
    <path id="Caminho_20" data-name="Caminho 20" d="M47.96,74.305l-.571.851c-.407.607-2.438,3.706-2.438,5.126a3.009,3.009,0,0,0,6.018,0c0-1.419-2.03-4.519-2.437-5.126Zm0,7.61a1.636,1.636,0,0,1-1.635-1.634,11.247,11.247,0,0,1,1.635-3.47,11.227,11.227,0,0,1,1.634,3.47A1.636,1.636,0,0,1,47.96,81.915Z" transform="translate(-25.474 -41.097)" fill="#fff" stroke="#fff" stroke-width="1"/>
    <path id="Caminho_21" data-name="Caminho 21" d="M37.96,74.305l-.571.851c-.407.607-2.438,3.706-2.438,5.126a3.009,3.009,0,0,0,6.018,0c0-1.419-2.03-4.519-2.437-5.126Zm0,7.61a1.636,1.636,0,0,1-1.635-1.634,11.247,11.247,0,0,1,1.635-3.47,11.227,11.227,0,0,1,1.634,3.47A1.636,1.636,0,0,1,37.96,81.915Z" transform="translate(-22.348 -41.097)" fill="#fff" stroke="#fff" stroke-width="1"/>
    <path id="Caminho_22" data-name="Caminho 22" d="M57.96,74.305l-.571.851c-.407.607-2.438,3.706-2.438,5.126a3.009,3.009,0,0,0,6.018,0c0-1.419-2.03-4.519-2.437-5.126Zm0,7.61a1.636,1.636,0,0,1-1.635-1.634,11.247,11.247,0,0,1,1.635-3.47,11.227,11.227,0,0,1,1.634,3.47A1.636,1.636,0,0,1,57.96,81.915Z" transform="translate(-28.6 -41.097)" fill="#fff" stroke="#fff" stroke-width="1"/>
    <path id="Caminho_23" data-name="Caminho 23" d="M58.716,37.554a6.069,6.069,0,0,0-6.063-6.063,5.977,5.977,0,0,0-1.162.116,15.507,15.507,0,0,0-11.979-5.615A15.692,15.692,0,0,0,24.718,36.657a8.506,8.506,0,1,0,4.016,16.2,15.591,15.591,0,0,0,25.384-5.8,3.7,3.7,0,0,0,.414.024,4.169,4.169,0,0,0,3.42-6.574,6.038,6.038,0,0,0,.764-2.948Zm-2.111,3.462A2.783,2.783,0,0,1,53.836,45.6l-.621-.159-.2.61a14.216,14.216,0,0,1-23.657,5.484l-.364-.371-.457.25a7.132,7.132,0,1,1-3.419-13.393h0l.618,0,.146-.491A14.3,14.3,0,0,1,39.512,27.368,14.144,14.144,0,0,1,50.688,32.8l.283.358.44-.121a4.685,4.685,0,0,1,5.133,7.131l-.3.447.362.4Z" transform="translate(-16.615 -25.993)" fill="#fff" stroke="#fff" stroke-width="1"/>
  </g>
</svg>
