<svg xmlns="http://www.w3.org/2000/svg" width="51.583" height="39.334" viewBox="0 0 51.583 39.334">
  <g id="_001lighticons-27" data-name="001lighticons-27" transform="translate(0.5 0.5)">
    <path id="Caminho_16" data-name="Caminho 16" d="M88.642,15.853a5.241,5.241,0,0,0-2.883.863.756.756,0,0,1-.9-.052,3.495,3.495,0,0,0-5.648,1.915.759.759,0,0,1-.737.589.751.751,0,0,1-.285-.056,3.5,3.5,0,0,0-4.814,3.241,3.537,3.537,0,0,0,.023.382,7.06,7.06,0,0,1,6.489.962,9.686,9.686,0,0,1,11.927,1.617,5.26,5.26,0,0,0-3.171-9.461Z" transform="translate(-43.325 -14.509)" fill="none" stroke="#fff" stroke-width="1"/>
    <path id="Caminho_17" data-name="Caminho 17" d="M46.194,68.591l.036-.26c-.349.031-.7.051-1.055.051a11.986,11.986,0,0,1-2.528-.277l-.023.162-1.7,2.817,2,1.385-2,5.383,5.691-5.037-2.846-1.731,2.428-2.493Z" transform="translate(-27.87 -39.393)" fill="#fff" stroke="#fff" stroke-width="1"/>
    <path id="Caminho_18" data-name="Caminho 18" d="M51.422,20.065a6.773,6.773,0,0,0-10.031-5.942,5.054,5.054,0,0,0-2.768-.835,4.991,4.991,0,0,0-4.642,3.125,5,5,0,0,0-6,5.947,7,7,0,0,0-2.934,3.754A7.045,7.045,0,1,0,26.131,39.2a7.03,7.03,0,0,0,3.263,3.721l.358-.592.079-.571a5.8,5.8,0,0,1-2.743-3.615.614.614,0,0,0-.927-.367,5.815,5.815,0,1,1-.925-10.294.616.616,0,0,0,.832-.434,5.81,5.81,0,0,1,9.39-3.182.614.614,0,0,0,.731.042,8.493,8.493,0,1,1,2.359,15.26.62.62,0,0,0-.709.3,5.811,5.811,0,0,1-2.283,2.312l-.2,1.467a7.05,7.05,0,0,0,3.325-2.775,9.7,9.7,0,0,0,10.1-15.045,6.769,6.769,0,0,0,2.643-5.361Zm-3.606,4.2a9.686,9.686,0,0,0-11.927-1.617,7.06,7.06,0,0,0-6.489-.962A3.485,3.485,0,0,1,32.877,17.8a3.487,3.487,0,0,1,1.315.258.756.756,0,0,0,1.022-.533,3.495,3.495,0,0,1,5.648-1.915.756.756,0,0,0,.9.052,5.26,5.26,0,0,1,6.054,8.6Z" transform="translate(-16.003 -13.287)" fill="#fff" stroke="#fff" stroke-width="1"/>
  </g>
</svg>
