<svg id="_001lighticons-06" data-name="001lighticons-06" xmlns="http://www.w3.org/2000/svg" width="45.816" height="26.385" viewBox="0 0 45.816 26.385">
  <path id="Caminho_11" data-name="Caminho 11" d="M28.267,46.752H50.038c.136.012.266.041.4.041A4.993,4.993,0,1,0,45.448,41.8a4.942,4.942,0,0,0,.751,2.6H27.093v2.326h1.063A.991.991,0,0,0,28.267,46.752Z" transform="translate(-27.092 -36.807)" fill="#fff"/>
  <path id="Caminho_12" data-name="Caminho 12" d="M57,53.228c-.033,0-.063-.021-.1-.021H29a1.078,1.078,0,0,0-.148.03v-.03H27.092v2.361h1.761v-.041a1.049,1.049,0,0,0,.148.03H52.584A4.99,4.99,0,1,0,57,53.228Z" transform="translate(-27.092 -36.807)" fill="#fff"/>
  <path id="Caminho_13" data-name="Caminho 13" d="M67.916,41.222a4.976,4.976,0,0,0-4.221,7.636H28.365c-.035,0-.065.017-.1.02v-.031H27.092v2.361h1.174v-.02c.034,0,.064.02.1.02H68.013c.035,0,.063-.017.1-.02a4.985,4.985,0,0,0-.2-9.966Z" transform="translate(-27.092 -36.807)" fill="#fff"/>
  <path id="Caminho_14" data-name="Caminho 14" d="M27.093,40.314h12.57v2H27.093Z" transform="translate(-27.092 -36.807)" fill="#fff"/>
  <path id="Caminho_15" data-name="Caminho 15" d="M27.343,57.2H46.371v2H27.343Z" transform="translate(-27.092 -36.807)" fill="#fff"/>
</svg>
