<svg xmlns="http://www.w3.org/2000/svg" width="1280" height="671.863" viewBox="0 0 1280 671.863">
  <g id="Grupo_32" data-name="Grupo 32" transform="translate(0 -128.137)">
    <g id="Grupo_27" data-name="Grupo 27" transform="translate(433 -96)">
      <g id="Grupo_22" data-name="Grupo 22" transform="translate(-21.62 323.092)">
        <circle id="Elipse_9" data-name="Elipse 9" cx="161.659" cy="161.659" r="161.659" transform="translate(0 228.62) rotate(-45)" fill="#d2ecfc" opacity="0.31"/>
      </g>
      <g id="Grupo_23" data-name="Grupo 23" transform="translate(-11.573 467.487)" opacity="0.1">
        <path id="Caminho_66" data-name="Caminho 66" d="M80.762,268.232h32.9V130.264L80.762,115.5Z" transform="translate(249.149 -64.322)" fill="#5c2aff"/>
        <rect id="Retângulo_19" data-name="Retângulo 19" width="32.427" height="84.593" transform="translate(304.063 119.317)" fill="#5c2aff"/>
        <rect id="Retângulo_20" data-name="Retângulo 20" width="30.547" height="126.419" transform="translate(273.516 77.491)" fill="#5c2aff"/>
        <rect id="Retângulo_21" data-name="Retângulo 21" width="12.582" height="126.419" transform="translate(282.498 43.529)" fill="#5c2aff"/>
        <rect id="Retângulo_22" data-name="Retângulo 22" width="2.42" height="126.419" transform="translate(287.579)" fill="#5c2aff"/>
        <rect id="Retângulo_23" data-name="Retângulo 23" width="15.979" height="92.112" transform="translate(260.827 111.798)" fill="#5c2aff"/>
        <rect id="Retângulo_24" data-name="Retângulo 24" width="17.859" height="106.211" transform="translate(246.728 97.699)" fill="#5c2aff"/>
        <path id="Caminho_67" data-name="Caminho 67" d="M-26.067,270.631H10.589V90.338l-36.657,19.567Z" transform="translate(238.959 -66.721)" fill="#5c2aff"/>
        <rect id="Retângulo_25" data-name="Retângulo 25" width="39.007" height="123.129" transform="translate(177.174 80.781)" fill="#5c2aff"/>
        <rect id="Retângulo_26" data-name="Retângulo 26" width="17.858" height="69.554" transform="translate(163.076 134.356)" fill="#5c2aff"/>
        <rect id="Retângulo_27" data-name="Retângulo 27" width="22.558" height="104.801" transform="translate(143.337 99.109)" fill="#5c2aff"/>
        <path id="Caminho_68" data-name="Caminho 68" d="M-132.9,266.907h47.936V144.718l-23.922-15.34-24.014,15.34Z" transform="translate(228.768 -62.997)" fill="#5c2aff"/>
        <rect id="Retângulo_28" data-name="Retângulo 28" width="49.816" height="86.002" transform="translate(50.755 117.908)" fill="#5c2aff"/>
        <rect id="Retângulo_29" data-name="Retângulo 29" width="31.957" height="142.397" transform="translate(23.498 61.513)" fill="#5c2aff"/>
        <rect id="Retângulo_30" data-name="Retângulo 30" width="26.788" height="98.691" transform="translate(0 105.219)" fill="#5c2aff"/>
        <rect id="Retângulo_31" data-name="Retângulo 31" width="42.57" height="96.943" transform="translate(357.432 106.967)" fill="#5c2aff"/>
        <rect id="Retângulo_32" data-name="Retângulo 32" width="31.254" height="83.471" transform="translate(396.769 120.439)" fill="#5c2aff"/>
      </g>
      <g id="Grupo_24" data-name="Grupo 24" transform="translate(-11.573 511.426)">
        <path id="Caminho_69" data-name="Caminho 69" d="M-127.987,270.854h-32.9V170.377l32.9-14.769Z" transform="translate(226.099 -104.434)" fill="#5c2aff"/>
        <rect id="Retângulo_33" data-name="Retângulo 33" width="32.427" height="47.102" transform="translate(123.96 166.42) rotate(180)" fill="#5c2aff"/>
        <rect id="Retângulo_34" data-name="Retângulo 34" width="30.547" height="88.929" transform="translate(154.507 166.42) rotate(180)" fill="#5c2aff"/>
        <rect id="Retângulo_35" data-name="Retângulo 35" width="12.582" height="99.038" transform="translate(145.524 142.567) rotate(180)" fill="#5c2aff"/>
        <rect id="Retângulo_36" data-name="Retângulo 36" width="2.42" height="126.419" transform="translate(140.443 126.419) rotate(180)" fill="#5c2aff"/>
        <rect id="Retângulo_37" data-name="Retângulo 37" width="15.979" height="54.622" transform="translate(167.196 166.42) rotate(180)" fill="#5c2aff"/>
        <rect id="Retângulo_38" data-name="Retângulo 38" width="17.858" height="68.72" transform="translate(181.294 166.42) rotate(180)" fill="#5c2aff"/>
        <path id="Caminho_70" data-name="Caminho 70" d="M-20.83,273.254H-57.487v-142.8l36.657,19.567Z" transform="translate(235.962 -106.834)" fill="#5c2aff"/>
        <rect id="Retângulo_39" data-name="Retângulo 39" width="39.006" height="85.639" transform="translate(250.848 166.42) rotate(180)" fill="#5c2aff"/>
        <rect id="Retângulo_40" data-name="Retângulo 40" width="17.858" height="32.064" transform="translate(264.947 166.42) rotate(180)" fill="#5c2aff"/>
        <rect id="Retângulo_41" data-name="Retângulo 41" width="22.558" height="67.311" transform="translate(284.685 166.42) rotate(180)" fill="#5c2aff"/>
        <path id="Caminho_71" data-name="Caminho 71" d="M86.982,269.53H39.046v-84.7l23.922-15.34,24.014,15.34Z" transform="translate(245.169 -103.11)" fill="#5c2aff"/>
        <rect id="Retângulo_42" data-name="Retângulo 42" width="49.816" height="48.512" transform="translate(377.267 166.42) rotate(180)" fill="#5c2aff"/>
        <rect id="Retângulo_43" data-name="Retângulo 43" width="31.957" height="104.907" transform="translate(404.525 166.42) rotate(180)" fill="#5c2aff"/>
        <rect id="Retângulo_44" data-name="Retângulo 44" width="26.788" height="61.201" transform="translate(428.023 166.42) rotate(180)" fill="#5c2aff"/>
        <rect id="Retângulo_45" data-name="Retângulo 45" width="42.57" height="59.452" transform="translate(70.591 166.42) rotate(180)" fill="#5c2aff"/>
        <rect id="Retângulo_46" data-name="Retângulo 46" width="31.254" height="45.981" transform="translate(31.254 166.42) rotate(180)" fill="#5c2aff"/>
        <rect id="Retângulo_47" data-name="Retângulo 47" width="5.346" height="14.392" transform="translate(186.063 47.019)" fill="#5c2aff"/>
        <rect id="Retângulo_48" data-name="Retângulo 48" width="5.346" height="14.392" transform="translate(199.427 47.019)" fill="#5c2aff"/>
        <rect id="Retângulo_49" data-name="Retângulo 49" width="5.346" height="14.392" transform="translate(186.063 74.364)" fill="#5c2aff"/>
        <rect id="Retângulo_50" data-name="Retângulo 50" width="5.346" height="14.392" transform="translate(199.427 74.364)" fill="#5c2aff"/>
        <rect id="Retângulo_51" data-name="Retângulo 51" width="5.346" height="14.392" transform="translate(186.063 101.709)" fill="#5c2aff"/>
        <rect id="Retângulo_52" data-name="Retângulo 52" width="5.346" height="14.392" transform="translate(199.427 101.709)" fill="#5c2aff"/>
        <rect id="Retângulo_53" data-name="Retângulo 53" width="5.346" height="14.392" transform="translate(186.063 129.054)" fill="#5c2aff"/>
        <rect id="Retângulo_54" data-name="Retângulo 54" width="5.346" height="14.392" transform="translate(199.427 129.054)" fill="#5c2aff"/>
        <rect id="Retângulo_55" data-name="Retângulo 55" width="5.346" height="14.392" transform="translate(221.838 91.224)" fill="#5c2aff"/>
        <rect id="Retângulo_56" data-name="Retângulo 56" width="5.346" height="14.392" transform="translate(235.202 91.224)" fill="#5c2aff"/>
        <rect id="Retângulo_57" data-name="Retângulo 57" width="5.346" height="14.392" transform="translate(221.838 118.569)" fill="#5c2aff"/>
        <rect id="Retângulo_58" data-name="Retângulo 58" width="5.346" height="14.392" transform="translate(235.202 118.569)" fill="#5c2aff"/>
        <rect id="Retângulo_59" data-name="Retângulo 59" width="5.346" height="14.392" transform="translate(267.481 104.794)" fill="#5c2aff"/>
        <rect id="Retângulo_60" data-name="Retângulo 60" width="5.345" height="14.392" transform="translate(280.845 104.794)" fill="#5c2aff"/>
        <rect id="Retângulo_61" data-name="Retângulo 61" width="5.346" height="14.392" transform="translate(267.481 132.139)" fill="#5c2aff"/>
        <rect id="Retângulo_62" data-name="Retângulo 62" width="5.345" height="14.392" transform="translate(280.845 132.139)" fill="#5c2aff"/>
        <rect id="Retângulo_63" data-name="Retângulo 63" width="5.346" height="14.392" transform="translate(300.789 89.168)" fill="#5c2aff"/>
        <rect id="Retângulo_64" data-name="Retângulo 64" width="5.345" height="14.392" transform="translate(314.153 89.168)" fill="#5c2aff"/>
        <rect id="Retângulo_65" data-name="Retângulo 65" width="5.346" height="14.392" transform="translate(300.789 116.513)" fill="#5c2aff"/>
        <rect id="Retângulo_66" data-name="Retângulo 66" width="5.345" height="14.392" transform="translate(314.153 116.513)" fill="#5c2aff"/>
        <rect id="Retângulo_67" data-name="Retângulo 67" width="5.346" height="14.392" transform="translate(380.562 71.897)" fill="#5c2aff"/>
        <rect id="Retângulo_68" data-name="Retângulo 68" width="5.346" height="14.392" transform="translate(393.926 71.897)" fill="#5c2aff"/>
        <rect id="Retângulo_69" data-name="Retângulo 69" width="5.346" height="14.392" transform="translate(380.562 99.242)" fill="#5c2aff"/>
        <rect id="Retângulo_70" data-name="Retângulo 70" width="5.346" height="14.392" transform="translate(393.926 99.242)" fill="#5c2aff"/>
        <rect id="Retângulo_71" data-name="Retângulo 71" width="5.346" height="14.392" transform="translate(130.962 83.822)" fill="#5c2aff"/>
        <rect id="Retângulo_72" data-name="Retângulo 72" width="5.346" height="14.392" transform="translate(144.326 83.822)" fill="#5c2aff"/>
        <rect id="Retângulo_73" data-name="Retângulo 73" width="5.346" height="14.392" transform="translate(130.962 111.167)" fill="#5c2aff"/>
        <rect id="Retângulo_74" data-name="Retângulo 74" width="5.346" height="14.392" transform="translate(144.326 111.167)" fill="#5c2aff"/>
        <rect id="Retângulo_75" data-name="Retângulo 75" width="5.345" height="14.392" transform="translate(72.982 71.486)" fill="#5c2aff"/>
        <rect id="Retângulo_76" data-name="Retângulo 76" width="5.346" height="14.392" transform="translate(86.346 71.486)" fill="#5c2aff"/>
        <rect id="Retângulo_77" data-name="Retângulo 77" width="5.345" height="14.392" transform="translate(72.982 98.831)" fill="#5c2aff"/>
        <rect id="Retângulo_78" data-name="Retângulo 78" width="5.346" height="14.392" transform="translate(86.346 98.831)" fill="#5c2aff"/>
      </g>
      <g id="Grupo_29" data-name="Grupo 29" transform="translate(-213.215 511.426)">
        <path id="Caminho_69-2" data-name="Caminho 69" d="M-127.987,270.854h-32.9V170.377l32.9-14.769Z" transform="translate(198.807 -104.434)" fill="#5c2aff"/>
        <rect id="Retângulo_33-2" data-name="Retângulo 33" width="32.427" height="47.102" transform="translate(85.699 166.42) rotate(180)" fill="#5c2aff"/>
        <rect id="Retângulo_34-2" data-name="Retângulo 34" width="30.547" height="88.929" transform="translate(102.937 166.42) rotate(180)" fill="#5c2aff"/>
        <rect id="Retângulo_35-2" data-name="Retângulo 35" width="12.582" height="99.038" transform="translate(92.609 142.567) rotate(180)" fill="#5c2aff"/>
        <rect id="Retângulo_36-2" data-name="Retângulo 36" width="2.42" height="126.419" transform="translate(86.818 126.419) rotate(180)" fill="#5c2aff"/>
        <rect id="Retângulo_37-2" data-name="Retângulo 37" width="15.979" height="54.622" transform="translate(106.511 166.42) rotate(180)" fill="#5c2aff"/>
        <rect id="Retângulo_38-2" data-name="Retângulo 38" width="17.858" height="68.72" transform="translate(115.405 166.42) rotate(180)" fill="#5c2aff"/>
        <path id="Caminho_70-2" data-name="Caminho 70" d="M-20.83,273.254H-57.487v-142.8l36.657,19.567Z" transform="translate(160.553 -106.834)" fill="#5c2aff"/>
        <rect id="Retângulo_39-2" data-name="Retângulo 39" width="39.006" height="85.639" transform="translate(160.801 166.42) rotate(180)" fill="#5c2aff"/>
        <rect id="Retângulo_40-2" data-name="Retângulo 40" width="17.858" height="32.064" transform="translate(165.333 166.42) rotate(180)" fill="#5c2aff"/>
        <rect id="Retângulo_41-2" data-name="Retângulo 41" width="22.558" height="67.311" transform="translate(177.784 166.42) rotate(180)" fill="#5c2aff"/>
        <path id="Caminho_71-2" data-name="Caminho 71" d="M86.982,269.53H39.046v-84.7l23.922-15.34,24.014,15.34Z" transform="translate(121.52 -103.11)" fill="#5c2aff"/>
        <rect id="Retângulo_42-2" data-name="Retângulo 42" width="49.816" height="48.512" transform="translate(211.909 166.42) rotate(180)" fill="#5c2aff"/>
        <rect id="Retângulo_43-2" data-name="Retângulo 43" width="31.957" height="104.907" transform="translate(239.167 166.42) rotate(180)" fill="#5c2aff"/>
        <rect id="Retângulo_44-2" data-name="Retângulo 44" width="26.788" height="61.201" transform="translate(262.665 166.42) rotate(180)" fill="#5c2aff"/>
        <rect id="Retângulo_45-2" data-name="Retângulo 45" width="42.57" height="59.452" transform="translate(70.591 166.42) rotate(180)" fill="#5c2aff"/>
        <rect id="Retângulo_46-2" data-name="Retângulo 46" width="31.254" height="45.981" transform="translate(31.254 166.42) rotate(180)" fill="#5c2aff"/>
        <rect id="Retângulo_47-2" data-name="Retângulo 47" width="5.346" height="14.392" transform="translate(113.272 47.019)" fill="#5c2aff"/>
        <rect id="Retângulo_48-2" data-name="Retângulo 48" width="5.346" height="14.392" transform="translate(121.408 47.019)" fill="#5c2aff"/>
        <rect id="Retângulo_49-2" data-name="Retângulo 49" width="5.346" height="14.392" transform="translate(113.272 74.364)" fill="#5c2aff"/>
        <rect id="Retângulo_50-2" data-name="Retângulo 50" width="5.346" height="14.392" transform="translate(121.408 74.364)" fill="#5c2aff"/>
        <rect id="Retângulo_51-2" data-name="Retângulo 51" width="5.346" height="14.392" transform="translate(113.272 101.709)" fill="#5c2aff"/>
        <rect id="Retângulo_52-2" data-name="Retângulo 52" width="5.346" height="14.392" transform="translate(121.408 101.709)" fill="#5c2aff"/>
        <rect id="Retângulo_53-2" data-name="Retângulo 53" width="5.346" height="14.392" transform="translate(113.272 129.054)" fill="#5c2aff"/>
        <rect id="Retângulo_54-2" data-name="Retângulo 54" width="5.346" height="14.392" transform="translate(121.408 129.054)" fill="#5c2aff"/>
        <rect id="Retângulo_55-2" data-name="Retângulo 55" width="5.346" height="14.392" transform="translate(135.051 91.224)" fill="#5c2aff"/>
        <rect id="Retângulo_56-2" data-name="Retângulo 56" width="5.346" height="14.392" transform="translate(143.187 91.224)" fill="#5c2aff"/>
        <rect id="Retângulo_57-2" data-name="Retângulo 57" width="5.346" height="14.392" transform="translate(135.051 118.569)" fill="#5c2aff"/>
        <rect id="Retângulo_58-2" data-name="Retângulo 58" width="5.346" height="14.392" transform="translate(143.187 118.569)" fill="#5c2aff"/>
        <rect id="Retângulo_59-2" data-name="Retângulo 59" width="5.346" height="14.392" transform="translate(162.838 104.794)" fill="#5c2aff"/>
        <rect id="Retângulo_60-2" data-name="Retângulo 60" width="5.345" height="14.392" transform="translate(170.974 104.794)" fill="#5c2aff"/>
        <rect id="Retângulo_61-2" data-name="Retângulo 61" width="5.346" height="14.392" transform="translate(162.838 132.139)" fill="#5c2aff"/>
        <rect id="Retângulo_62-2" data-name="Retângulo 62" width="5.345" height="14.392" transform="translate(170.974 132.139)" fill="#5c2aff"/>
        <rect id="Retângulo_63-2" data-name="Retângulo 63" width="5.346" height="14.392" transform="translate(183.115 89.168)" fill="#5c2aff"/>
        <rect id="Retângulo_64-2" data-name="Retângulo 64" width="5.345" height="14.392" transform="translate(191.251 89.168)" fill="#5c2aff"/>
        <rect id="Retângulo_65-2" data-name="Retângulo 65" width="5.346" height="14.392" transform="translate(183.115 116.513)" fill="#5c2aff"/>
        <rect id="Retângulo_66-2" data-name="Retângulo 66" width="5.345" height="14.392" transform="translate(191.251 116.513)" fill="#5c2aff"/>
        <rect id="Retângulo_67-2" data-name="Retângulo 67" width="5.346" height="14.392" transform="translate(215.204 71.897)" fill="#5c2aff"/>
        <rect id="Retângulo_68-2" data-name="Retângulo 68" width="5.346" height="14.392" transform="translate(228.568 71.897)" fill="#5c2aff"/>
        <rect id="Retângulo_69-2" data-name="Retângulo 69" width="5.346" height="14.392" transform="translate(215.204 99.242)" fill="#5c2aff"/>
        <rect id="Retângulo_70-2" data-name="Retângulo 70" width="5.346" height="14.392" transform="translate(228.568 99.242)" fill="#5c2aff"/>
        <rect id="Retângulo_71-2" data-name="Retângulo 71" width="5.346" height="14.392" transform="translate(79.727 83.822)" fill="#5c2aff"/>
        <rect id="Retângulo_72-2" data-name="Retângulo 72" width="5.346" height="14.392" transform="translate(87.863 83.822)" fill="#5c2aff"/>
        <rect id="Retângulo_73-2" data-name="Retângulo 73" width="5.346" height="14.392" transform="translate(79.727 111.167)" fill="#5c2aff"/>
        <rect id="Retângulo_74-2" data-name="Retângulo 74" width="5.346" height="14.392" transform="translate(87.863 111.167)" fill="#5c2aff"/>
        <rect id="Retângulo_75-2" data-name="Retângulo 75" width="5.345" height="14.392" transform="translate(72.982 71.486)" fill="#5c2aff"/>
        <rect id="Retângulo_76-2" data-name="Retângulo 76" width="5.346" height="14.392" transform="translate(52.566 71.486)" fill="#5c2aff"/>
        <rect id="Retângulo_77-2" data-name="Retângulo 77" width="5.345" height="14.392" transform="translate(72.982 98.831)" fill="#5c2aff"/>
        <rect id="Retângulo_78-2" data-name="Retângulo 78" width="5.346" height="14.392" transform="translate(52.566 98.831)" fill="#5c2aff"/>
      </g>
      <g id="Grupo_30" data-name="Grupo 30" transform="translate(416.45 511.426)">
        <path id="Caminho_69-3" data-name="Caminho 69" d="M-160.884,270.854h32.9V170.377l-32.9-14.769Z" transform="translate(307.4 -104.434)" fill="#5c2aff"/>
        <rect id="Retângulo_33-3" data-name="Retângulo 33" width="32.427" height="47.102" transform="translate(115.293 119.317)" fill="#5c2aff"/>
        <rect id="Retângulo_34-3" data-name="Retângulo 34" width="30.547" height="88.929" transform="translate(103.26 77.491)" fill="#5c2aff"/>
        <rect id="Retângulo_35-3" data-name="Retângulo 35" width="12.582" height="99.038" transform="translate(128.821 43.529)" fill="#5c2aff"/>
        <rect id="Retângulo_36-3" data-name="Retângulo 36" width="2.42" height="126.419" transform="translate(143.215)" fill="#5c2aff"/>
        <rect id="Retângulo_37-3" data-name="Retângulo 37" width="15.979" height="54.622" transform="translate(114.239 111.798)" fill="#5c2aff"/>
        <rect id="Retângulo_38-3" data-name="Retângulo 38" width="17.858" height="68.72" transform="translate(105.216 97.699)" fill="#5c2aff"/>
        <path id="Caminho_70-3" data-name="Caminho 70" d="M-57.487,273.254H-20.83v-142.8l-36.657,19.567Z" transform="translate(155.771 -106.834)" fill="#5c2aff"/>
        <rect id="Retângulo_39-3" data-name="Retângulo 39" width="39.006" height="85.639" transform="translate(48.944 80.781)" fill="#5c2aff"/>
        <rect id="Retângulo_40-3" data-name="Retângulo 40" width="17.858" height="32.064" transform="translate(64.533 134.356)" fill="#5c2aff"/>
        <rect id="Retângulo_41-3" data-name="Retângulo 41" width="22.558" height="67.311" transform="translate(50.191 99.109)" fill="#5c2aff"/>
        <path id="Caminho_71-3" data-name="Caminho 71" d="M39.046,269.53H86.982v-84.7L63.06,169.491l-24.014,15.34Z" transform="translate(3.683 -103.11)" fill="#5c2aff"/>
        <rect id="Retângulo_42-3" data-name="Retângulo 42" width="49.816" height="48.512" transform="translate(0 117.908)" fill="#5c2aff"/>
        <rect id="Retângulo_43-3" data-name="Retângulo 43" width="31.957" height="104.907" transform="translate(23.498 61.513)" fill="#5c2aff"/>
        <rect id="Retângulo_44-3" data-name="Retângulo 44" width="26.788" height="61.201" transform="translate(0 105.219)" fill="#5c2aff"/>
        <rect id="Retângulo_45-3" data-name="Retângulo 45" width="42.57" height="59.452" transform="translate(146.745 106.967)" fill="#5c2aff"/>
        <rect id="Retângulo_46-3" data-name="Retângulo 46" width="31.254" height="45.981" transform="translate(186.082 120.439)" fill="#5c2aff"/>
        <rect id="Retângulo_47-3" data-name="Retângulo 47" width="5.346" height="14.392" transform="translate(118.672 47.019)" fill="#5c2aff"/>
        <rect id="Retângulo_48-3" data-name="Retângulo 48" width="5.346" height="14.392" transform="translate(111.969 47.019)" fill="#5c2aff"/>
        <rect id="Retângulo_49-3" data-name="Retângulo 49" width="5.346" height="14.392" transform="translate(118.672 74.364)" fill="#5c2aff"/>
        <rect id="Retângulo_50-3" data-name="Retângulo 50" width="5.346" height="14.392" transform="translate(111.969 74.364)" fill="#5c2aff"/>
        <rect id="Retângulo_51-3" data-name="Retângulo 51" width="5.346" height="14.392" transform="translate(118.672 101.709)" fill="#5c2aff"/>
        <rect id="Retângulo_52-3" data-name="Retângulo 52" width="5.346" height="14.392" transform="translate(111.969 101.709)" fill="#5c2aff"/>
        <rect id="Retângulo_53-3" data-name="Retângulo 53" width="5.346" height="14.392" transform="translate(118.672 129.054)" fill="#5c2aff"/>
        <rect id="Retângulo_54-3" data-name="Retângulo 54" width="5.346" height="14.392" transform="translate(111.969 129.054)" fill="#5c2aff"/>
        <rect id="Retângulo_55-3" data-name="Retângulo 55" width="5.346" height="14.392" transform="translate(100.729 91.224)" fill="#5c2aff"/>
        <rect id="Retângulo_56-3" data-name="Retângulo 56" width="5.346" height="14.392" transform="translate(94.027 91.224)" fill="#5c2aff"/>
        <rect id="Retângulo_57-3" data-name="Retângulo 57" width="5.346" height="14.392" transform="translate(100.729 118.569)" fill="#5c2aff"/>
        <rect id="Retângulo_58-3" data-name="Retângulo 58" width="5.346" height="14.392" transform="translate(94.027 118.569)" fill="#5c2aff"/>
        <rect id="Retângulo_59-3" data-name="Retângulo 59" width="5.346" height="14.392" transform="translate(77.837 104.794)" fill="#5c2aff"/>
        <rect id="Retângulo_60-3" data-name="Retângulo 60" width="5.345" height="14.392" transform="translate(71.135 104.794)" fill="#5c2aff"/>
        <rect id="Retângulo_61-3" data-name="Retângulo 61" width="5.346" height="14.392" transform="translate(77.837 132.139)" fill="#5c2aff"/>
        <rect id="Retângulo_62-3" data-name="Retângulo 62" width="5.345" height="14.392" transform="translate(71.135 132.139)" fill="#5c2aff"/>
        <rect id="Retângulo_63-3" data-name="Retângulo 63" width="5.346" height="14.392" transform="translate(61.132 89.168)" fill="#5c2aff"/>
        <rect id="Retângulo_64-3" data-name="Retângulo 64" width="5.345" height="14.392" transform="translate(54.429 89.168)" fill="#5c2aff"/>
        <rect id="Retângulo_65-3" data-name="Retângulo 65" width="5.346" height="14.392" transform="translate(61.132 116.513)" fill="#5c2aff"/>
        <rect id="Retângulo_66-3" data-name="Retângulo 66" width="5.345" height="14.392" transform="translate(54.429 116.513)" fill="#5c2aff"/>
        <rect id="Retângulo_67-3" data-name="Retângulo 67" width="5.346" height="14.392" transform="translate(42.115 71.897)" fill="#5c2aff"/>
        <rect id="Retângulo_68-3" data-name="Retângulo 68" width="5.346" height="14.392" transform="translate(28.751 71.897)" fill="#5c2aff"/>
        <rect id="Retângulo_69-3" data-name="Retângulo 69" width="5.346" height="14.392" transform="translate(42.115 99.242)" fill="#5c2aff"/>
        <rect id="Retângulo_70-3" data-name="Retângulo 70" width="5.346" height="14.392" transform="translate(28.751 99.242)" fill="#5c2aff"/>
        <rect id="Retângulo_71-3" data-name="Retângulo 71" width="5.346" height="14.392" transform="translate(146.307 83.822)" fill="#5c2aff"/>
        <rect id="Retângulo_72-3" data-name="Retângulo 72" width="5.346" height="14.392" transform="translate(139.605 83.822)" fill="#5c2aff"/>
        <rect id="Retângulo_73-3" data-name="Retângulo 73" width="5.346" height="14.392" transform="translate(146.307 111.167)" fill="#5c2aff"/>
        <rect id="Retângulo_74-3" data-name="Retângulo 74" width="5.346" height="14.392" transform="translate(139.605 111.167)" fill="#5c2aff"/>
        <rect id="Retângulo_75-3" data-name="Retângulo 75" width="5.345" height="14.392" transform="translate(151.865 71.486)" fill="#5c2aff"/>
        <rect id="Retângulo_76-3" data-name="Retângulo 76" width="5.346" height="14.392" transform="translate(168.684 71.486)" fill="#5c2aff"/>
        <rect id="Retângulo_77-3" data-name="Retângulo 77" width="5.345" height="14.392" transform="translate(151.865 98.831)" fill="#5c2aff"/>
        <rect id="Retângulo_78-3" data-name="Retângulo 78" width="5.346" height="14.392" transform="translate(168.684 98.831)" fill="#5c2aff"/>
      </g>
      <g id="cloud-26" transform="translate(63 224.137)" opacity="0.1">
        <path id="Caminho_1" data-name="Caminho 1" d="M54.669,7A31.368,31.368,0,0,0,24.5,29.578a18.233,18.233,0,0,0-3.146-.37,20.357,20.357,0,0,0,0,40.714H54.669A31.461,31.461,0,1,0,54.669,7Z" transform="translate(-1 -7)" fill="#fff"/>
      </g>
      <g id="cloud-26-2" data-name="cloud-26" transform="translate(328 291.137)" opacity="0.1">
        <path id="Caminho_1-2" data-name="Caminho 1" d="M20.217,7A19.169,19.169,0,0,1,38.643,20.833a11.105,11.105,0,0,1,1.922-.227,12.473,12.473,0,0,1,0,24.946H20.217A19.276,19.276,0,0,1,20.217,7Z" transform="translate(-1 -7)" fill="#fff"/>
      </g>
      <rect id="Retângulo_79" data-name="Retângulo 79" width="1280" height="240" transform="translate(-433 656)" fill="#5c2aff"/>
      <ellipse id="Elipse_1" data-name="Elipse 1" cx="38.867" cy="38.867" rx="38.867" ry="38.867" transform="translate(146.933 322.585)" fill="#ffec5c"/>
      <g id="cloud-26-3" data-name="cloud-26" transform="translate(130.444 334.831)">
        <path id="Caminho_1-3" data-name="Caminho 1" d="M97.527,7A56.418,56.418,0,0,0,43.272,47.608a32.8,32.8,0,0,0-5.658-.666,36.614,36.614,0,1,0,0,73.227H97.527A56.585,56.585,0,1,0,97.527,7Z" transform="translate(-1 -7)" fill="#fff"/>
      </g>
      <path id="Caminho_74" data-name="Caminho 74" d="M-433,656s54.166-25.221,86.276-20.151,44.323,13.38,68.832,5.678,29.061-11.2,52.169-14.005,18.207,1.4,38.864,5.6,18.907,12.955,27.66,16.456A71.046,71.046,0,0,1-146.245,656l-16.806,33.494s-95.935,30.811-114.842,31.511" fill="#5c2aff"/>
    </g>
    <path id="Caminho_75" data-name="Caminho 75" d="M-60.3,656s-70.4-25.221-112.133-20.151-57.607,13.38-89.462,5.678-37.77-11.2-67.8-14.005-23.663,1.4-50.512,5.6-24.574,12.955-35.95,16.456S-433,656-433,656l21.843,33.494S-286.469,720.3-261.9,721.005" transform="translate(1338.796 -96)" fill="#5c2aff"/>
  </g>
</svg>
